<svg xmlns="http://www.w3.org/2000/svg" xmlns:xlink="http://www.w3.org/1999/xlink" viewBox="0 0 1800 400" width="1800" height="400">
  <rect width="1800" height="400" fill="#1e222d"/>
  <defs>
    <path id="tp0" d="M 1436.7,81.2 A 120,120 0 0 1 1537.4,175.1"/>
    <path id="tp1" d="M 1444.9,317.4 A 120,120 0 0 0 1538.8,216.7"/>
    <path id="tp2" d="M 1302.6,224.9 A 120,120 0 0 0 1403.3,318.8"/>
    <path id="tp3" d="M 1301.2,183.3 A 120,120 0 0 1 1395.1,82.6"/>
  </defs>
  <path d="M 1436.7,81.2 A 120,120 0 0 1 1537.4,175.1" fill="none" stroke="#d42b2b" stroke-width="24" stroke-linecap="butt" opacity="0.92"/>
  <polygon points="1541.5,194.6 1520.5,172.5 1551.8,165.9" fill="#d42b2b" opacity="0.92"/>
  <path d="M 1538.8,216.7 A 120,120 0 0 1 1444.9,317.4" fill="none" stroke="#3a6bb5" stroke-width="24" stroke-linecap="butt" opacity="0.92"/>
  <polygon points="1425.4,321.5 1447.5,300.5 1454.1,331.8" fill="#3a6bb5" opacity="0.92"/>
  <path d="M 1403.3,318.8 A 120,120 0 0 1 1302.6,224.9" fill="none" stroke="#00a08a" stroke-width="24" stroke-linecap="butt" opacity="0.92"/>
  <polygon points="1298.5,205.4 1319.5,227.5 1288.2,234.1" fill="#00a08a" opacity="0.92"/>
  <path d="M 1301.2,183.3 A 120,120 0 0 1 1395.1,82.6" fill="none" stroke="#e0b515" stroke-width="24" stroke-linecap="butt" opacity="0.92"/>
  <polygon points="1414.6,78.5 1392.5,99.5 1385.9,68.2" fill="#e0b515" opacity="0.92"/>
  <text font-family="sans-serif" font-size="16" font-weight="bold" fill="white" dy="5">
    <textPath xlink:href="#tp0" href="#tp0" startOffset="50%" text-anchor="middle">Design</textPath>
  </text>
  <text font-family="sans-serif" font-size="16" font-weight="bold" fill="white" dy="5">
    <textPath xlink:href="#tp1" href="#tp1" startOffset="50%" text-anchor="middle">Analyze</textPath>
  </text>
  <text font-family="sans-serif" font-size="16" font-weight="bold" fill="white" dy="5">
    <textPath xlink:href="#tp2" href="#tp2" startOffset="50%" text-anchor="middle">Implement</textPath>
  </text>
  <text font-family="sans-serif" font-size="16" font-weight="bold" fill="white" dy="5">
    <textPath xlink:href="#tp3" href="#tp3" startOffset="50%" text-anchor="middle">Experiment</textPath>
  </text>
  <ellipse cx="1420" cy="200" rx="72" ry="45" fill="none" stroke="#4a5068" stroke-width="1.5" opacity="0.6"/>
  <text x="1420" y="188" font-family="sans-serif" font-size="14" fill="#a0a5b5" text-anchor="middle" font-weight="bold">falsifiable</text>
  <text x="1420" y="206" font-family="sans-serif" font-size="14" fill="#a0a5b5" text-anchor="middle" font-weight="bold">hypotheses</text>
  <text x="1420" y="226" font-family="sans-serif" font-size="13" fill="#e64855" text-anchor="middle" font-style="italic">induction</text>
  <circle cx="1671" cy="338" r="2.0" fill="#e64855" opacity="0.15"/>
  <circle cx="1612" cy="26" r="3.2" fill="#d42b2b" opacity="0.15"/>
  <circle cx="1609" cy="113" r="3.1" fill="#3a6bb5" opacity="0.15"/>
  <circle cx="1619" cy="223" r="1.9" fill="#00a08a" opacity="0.15"/>
  <circle cx="1220" cy="69" r="2.6" fill="#00a08a" opacity="0.15"/>
  <circle cx="1646" cy="265" r="1.9" fill="#3a6bb5" opacity="0.15"/>
  <circle cx="1173" cy="66" r="3.2" fill="#e64855" opacity="0.15"/>
  <circle cx="1651" cy="64" r="1.7" fill="#3a6bb5" opacity="0.15"/>
  <circle cx="1197" cy="320" r="2.4" fill="#d42b2b" opacity="0.15"/>
  <circle cx="1650" cy="79" r="2.0" fill="#e64855" opacity="0.15"/>
  <circle cx="1224" cy="204" r="3.4" fill="#d42b2b" opacity="0.15"/>
  <circle cx="1720" cy="296" r="2.0" fill="#e64855" opacity="0.15"/>
  <text x="60" y="140" font-family="sans-serif" font-size="52" font-weight="bold">
    <tspan fill="#e64855">Agentic</tspan>
    <tspan fill="#f0f2f5"> Algorithm Engineering</tspan>
  </text>
  <text x="60" y="190" font-family="sans-serif" font-size="20" fill="#c8cdd7">Autonomous Performance Tuning via the AE Cycle</text>
  <text x="60" y="220" font-family="sans-serif" font-size="16" fill="#8c91a0">Heidelberg University</text>
  <rect x="60" y="260" width="96" height="26" rx="10" fill="#373c4b"/>
  <text x="108" y="277" font-family="sans-serif" font-size="13" fill="#b4b9c3" text-anchor="middle">AI Agents</text>
  <rect x="168.5" y="260" width="198" height="26" rx="10" fill="#373c4b"/>
  <text x="268" y="277" font-family="sans-serif" font-size="13" fill="#b4b9c3" text-anchor="middle">Algorithm Engineering</text>
  <text x="1760" y="385" font-family="sans-serif" font-size="13" fill="#555a68" text-anchor="end">Systematic Optimization through Falsifiable Hypotheses</text>
</svg>